<?xml version="1.0" encoding="UTF-8"?>
<svg version="1.1" xmlns="http://www.w3.org/2000/svg" width="32" height="32">
<path d="M0 0 C4.59817352 1.45205479 4.59817352 1.45205479 6.375 3.875 C7.09806909 6.3334349 6.85178626 7.61499846 6 10 C3.36 10.33 0.72 10.66 -2 11 C-2 9.35 -2 7.7 -2 6 C-0.68 6 0.64 6 2 6 C1.01 5.67 0.02 5.34 -1 5 C-1 4.34 -1 3.68 -1 3 C-0.01 3 0.98 3 2 3 C1.34 2.01 0.68 1.02 0 0 Z M0 8 C0 8.33 0 8.66 0 9 C1.65 9 3.3 9 5 9 C5 8.67 5 8.34 5 8 C3.35 8 1.7 8 0 8 Z " fill="#EBBA86" transform="translate(2,7)"/>
<path d="M0 0 C0 1.65 0 3.3 0 5 C-1.32 5 -2.64 5 -4 5 C-3.01 5.99 -2.02 6.98 -1 8 C-1.99 8 -2.98 8 -4 8 C-3.01 9.485 -3.01 9.485 -2 11 C-6.62162162 9.54054054 -6.62162162 9.54054054 -8.3125 7.125 C-9 5 -9 5 -9 1 C-5.92677456 0.08941469 -3.19902639 -0.08886184 0 0 Z " fill="#EBBA86" transform="translate(32,14)"/>
<path d="M0 0 C1.32 0.33 2.64 0.66 4 1 C4 3.64 4 6.28 4 9 C3.34 8.01 2.68 7.02 2 6 C1.01 7.485 1.01 7.485 0 9 C0 7.35 0 5.7 0 4 C-0.99 5.32 -1.98 6.64 -3 8 C-2.45276317 4.62537285 -1.9451 2.91765 0 0 Z " fill="#EBB780" transform="translate(12,23)"/>
<path d="M0 0 C0.99 1.485 0.99 1.485 2 3 C2.66 2.01 3.32 1.02 4 0 C4 1.65 4 3.3 4 5 C4.99 3.68 5.98 2.36 7 1 C6.50168276 4.68754757 5.89932357 6.60490662 3 9 C2.01 8.67 1.02 8.34 0 8 C0 5.36 0 2.72 0 0 Z " fill="#EBB780" transform="translate(16,0)"/>
<path d="M0 0 C4.875 4.625 4.875 4.625 6 8 C5.34 8 4.68 8 4 8 C3.34 7.34 2.68 6.68 2 6 C2.33 6.99 2.66 7.98 3 9 C2.34 9 1.68 9 1 9 C-1.09230769 4.56923077 -1.09230769 4.56923077 -0.625 1.6875 C-0.41875 1.130625 -0.2125 0.57375 0 0 Z " fill="#EBBA85" transform="translate(20,22)"/>
<path d="M0 0 C0.66 0 1.32 0 2 0 C4.09230769 4.43076923 4.09230769 4.43076923 3.625 7.3125 C3.41875 7.869375 3.2125 8.42625 3 9 C-1.875 4.375 -1.875 4.375 -3 1 C-2.34 1 -1.68 1 -1 1 C-0.34 1.66 0.32 2.32 1 3 C0.67 2.01 0.34 1.02 0 0 Z " fill="#EBBA87" transform="translate(9,1)"/>
<path d="M0 0 C3.23475448 1.61737724 4.70572021 2.47629223 7 5 C6.67 5.66 6.34 6.32 6 7 C4.02 4.69 2.04 2.38 0 0 Z " fill="#EBB378" transform="translate(21,21)"/>
<path d="M0 0 C0.33 0.66 0.66 1.32 1 2 C-1.3125 3.5625 -1.3125 3.5625 -4 5 C-4.99 4.67 -5.98 4.34 -7 4 C-4.69 2.68 -2.38 1.36 0 0 Z " fill="#EBB277" transform="translate(8,19)"/>
<path d="M0 0 C1.98 1.65 3.96 3.3 6 5 C5.67 5.66 5.34 6.32 5 7 C3.29115995 5.37660195 1.62553283 3.70680947 0 2 C0 1.34 0 0.68 0 0 Z " fill="#EBB278" transform="translate(4,4)"/>
<path d="M0 0 C0.33 0.66 0.66 1.32 1 2 C-0.65 3.65 -2.3 5.3 -4 7 C-2.79618552 4.50638429 -1.54571278 2.31856917 0 0 Z " fill="#EBB176" transform="translate(10,22)"/>
<path d="M0 0 C0.66 0.33 1.32 0.66 2 1 C0.02 2.32 -1.96 3.64 -4 5 C-4.33 4.34 -4.66 3.68 -5 3 C-2.625 1.4375 -2.625 1.4375 0 0 Z " fill="#EBB277" transform="translate(28,8)"/>
<path d="M0 0 C0 3 0 3 -2 5.1875 C-2.66 5.785625 -3.32 6.38375 -4 7 C-2.92598892 4.08482708 -2.22189824 2.22189824 0 0 Z " fill="#EBB175" transform="translate(25,3)"/>
<path d="M0 0 C2 2 2 2 2.125 5.125 C2.08375 6.07375 2.0425 7.0225 2 8 C0.23537317 4.91190305 0 3.76687864 0 0 Z " fill="#EBC499" transform="translate(17,24)"/>
<path d="M0 0 C0.66 0.33 1.32 0.66 2 1 C0.68 2.32 -0.64 3.64 -2 5 C-2.66 4.67 -3.32 4.34 -4 4 C-2.68 2.68 -1.36 1.36 0 0 Z " fill="#EBC397" transform="translate(7,22)"/>
<path d="M0 0 C-4.625 2.125 -4.625 2.125 -8 1 C-3.375 -1.125 -3.375 -1.125 0 0 Z " fill="#EBC397" transform="translate(8,19)"/>
<path d="M0 0 C-4.625 2.125 -4.625 2.125 -8 1 C-3.375 -1.125 -3.375 -1.125 0 0 Z " fill="#EBC397" transform="translate(32,12)"/>
<path d="M0 0 C0.66 0.33 1.32 0.66 2 1 C0.68 2.32 -0.64 3.64 -2 5 C-2.66 4.67 -3.32 4.34 -4 4 C-2.68 2.68 -1.36 1.36 0 0 Z " fill="#EBC295" transform="translate(27,5)"/>
<path d="M0 0 C1.42944945 2.35438733 2.08661261 3.48032433 1.625 6.25 C1.41875 6.8275 1.2125 7.405 1 8 C-0.35439668 5.29120665 -0.06501451 2.99066732 0 0 Z " fill="#EBC499" transform="translate(13,0)"/>
<path d="" fill="#EBC79E" transform="translate(0,0)"/>
<path d="" fill="#EBC79E" transform="translate(0,0)"/>
</svg>
