<svg width="160" height="140" viewBox="0 0 160 140" fill="none" xmlns="http://www.w3.org/2000/svg">
  <ellipse cx="80" cy="118" rx="54" ry="10" fill="#0D5CA4" fill-opacity="0.08"/>

  <!-- device body -->
  <rect x="42" y="34" width="76" height="70" rx="12" fill="#0D5CA4"/>
  <rect x="42" y="34" width="76" height="18" rx="12" fill="#1E64D9"/>
  <rect x="42" y="46" width="76" height="6" fill="#1E64D9"/>

  <!-- screen -->
  <rect x="54" y="58" width="52" height="28" rx="4" fill="#EEF3F9"/>
  <path d="M60 72H100" stroke="#0D5CA4" stroke-width="2.5" stroke-linecap="round" stroke-opacity="0.45"/>
  <path d="M60 78H88" stroke="#0D5CA4" stroke-width="2.5" stroke-linecap="round" stroke-opacity="0.3"/>

  <!-- antenna / signal dots -->
  <circle cx="62" cy="43" r="3" fill="#EEF3F9"/>
  <circle cx="74" cy="43" r="3" fill="#EEF3F9" fill-opacity="0.7"/>
  <circle cx="86" cy="43" r="3" fill="#EEF3F9" fill-opacity="0.4"/>

  <!-- bottom ports -->
  <rect x="66" y="94" width="10" height="4" rx="1" fill="#07518D" fill-opacity="0.45"/>
  <rect x="84" y="94" width="10" height="4" rx="1" fill="#07518D" fill-opacity="0.45"/>

  <!-- wifi arcs -->
  <path d="M118 78C122 74 128 74 132 78" stroke="#0D5CA4" stroke-width="2.5" stroke-linecap="round" stroke-opacity="0.35"/>
  <path d="M114 72C121 65 131 65 138 72" stroke="#0D5CA4" stroke-width="2.5" stroke-linecap="round" stroke-opacity="0.25"/>

  <!-- badge -->
  <circle cx="118" cy="42" r="18" fill="#FFFFFF"/>
  <circle cx="118" cy="42" r="18" fill="#0D5CA4" fill-opacity="0.12"/>
  <circle cx="118" cy="42" r="14" fill="#0D5CA4"/>
  <path d="M111.5 42.5L116 47L125.5 37.5" stroke="white" stroke-width="2.5" stroke-linecap="round" stroke-linejoin="round"/>
</svg>
