<svg width="160" height="140" viewBox="0 0 160 140" fill="none" xmlns="http://www.w3.org/2000/svg">
  <!-- soft ground glow -->
  <ellipse cx="80" cy="118" rx="54" ry="10" fill="#0D5CA4" fill-opacity="0.08"/>

  <!-- building back -->
  <rect x="78" y="38" width="48" height="72" rx="6" fill="#07518D" fill-opacity="0.18"/>
  <rect x="86" y="48" width="8" height="8" rx="1.5" fill="#0D5CA4" fill-opacity="0.35"/>
  <rect x="100" y="48" width="8" height="8" rx="1.5" fill="#0D5CA4" fill-opacity="0.35"/>
  <rect x="114" y="48" width="8" height="8" rx="1.5" fill="#0D5CA4" fill-opacity="0.35"/>
  <rect x="86" y="64" width="8" height="8" rx="1.5" fill="#0D5CA4" fill-opacity="0.35"/>
  <rect x="100" y="64" width="8" height="8" rx="1.5" fill="#0D5CA4" fill-opacity="0.35"/>
  <rect x="114" y="64" width="8" height="8" rx="1.5" fill="#0D5CA4" fill-opacity="0.35"/>
  <rect x="86" y="80" width="8" height="8" rx="1.5" fill="#0D5CA4" fill-opacity="0.35"/>
  <rect x="100" y="80" width="8" height="8" rx="1.5" fill="#0D5CA4" fill-opacity="0.35"/>

  <!-- building front -->
  <rect x="34" y="28" width="58" height="82" rx="8" fill="#0D5CA4"/>
  <rect x="34" y="28" width="58" height="14" rx="8" fill="#1E64D9"/>
  <rect x="34" y="36" width="58" height="6" fill="#1E64D9"/>

  <!-- windows -->
  <rect x="44" y="50" width="10" height="10" rx="2" fill="#EEF3F9"/>
  <rect x="58" y="50" width="10" height="10" rx="2" fill="#EEF3F9"/>
  <rect x="72" y="50" width="10" height="10" rx="2" fill="#EEF3F9"/>
  <rect x="44" y="68" width="10" height="10" rx="2" fill="#EEF3F9"/>
  <rect x="58" y="68" width="10" height="10" rx="2" fill="#EEF3F9"/>
  <rect x="72" y="68" width="10" height="10" rx="2" fill="#EEF3F9"/>

  <!-- door -->
  <rect x="54" y="88" width="18" height="22" rx="3" fill="#EEF3F9"/>

  <!-- success badge -->
  <circle cx="118" cy="42" r="18" fill="#FFFFFF"/>
  <circle cx="118" cy="42" r="18" fill="#0D5CA4" fill-opacity="0.12"/>
  <circle cx="118" cy="42" r="14" fill="#0D5CA4"/>
  <path d="M111.5 42.5L116 47L125.5 37.5" stroke="white" stroke-width="2.5" stroke-linecap="round" stroke-linejoin="round"/>
</svg>
